<?xml version="1.0" encoding="utf-8"?>
<!-- Generator: Adobe Illustrator 15.0.2, SVG Export Plug-In . SVG Version: 6.00 Build 0)  -->
<!DOCTYPE svg PUBLIC "-//W3C//DTD SVG 1.1//EN" "http://www.w3.org/Graphics/SVG/1.1/DTD/svg11.dtd">
<svg version="1.1" id="Layer_1" xmlns="http://www.w3.org/2000/svg" xmlns:xlink="http://www.w3.org/1999/xlink" x="0px" y="0px"
	 width="1736.238px" height="508.801px" viewBox="0 0 1736.238 508.801" enable-background="new 0 0 1736.238 508.801"
	 xml:space="preserve">
<path fill-rule="evenodd" clip-rule="evenodd" d="M1178.464,94.892c9.642-5.121,17.244-2.862,22.818,6.778l86.983,160.415
	l35.249-138.273c3.464-12.651,10.843-18.977,22.139-18.977h61.906l9.038,3.614l2.259,14.686l-41.118,164.933
	c-3.618,12.197-10.996,18.3-22.143,18.3h-42.022l69.359,120.649c4.669,9.188,2.409,16.565-6.778,22.139l-51.06,28.241
	c-9.792,5.123-17.17,3.089-22.144-6.099l-87.884-159.737l-34.345,137.594c-3.614,12.201-10.996,18.3-22.139,18.3h-62.586
	l-8.583-3.84c-3.464-3.613-4.443-8.207-2.938-13.78l42.022-165.611c3.014-12.201,10.392-18.299,22.143-18.299h41.118l-67.779-119.97
	c-6.174-10.244-4.444-17.85,5.198-22.82L1178.464,94.892z M1488.446,123.811c3.01-12.651,10.393-18.977,22.14-18.977h61.906
	l9.037,3.614c3.014,3.616,3.764,8.51,2.26,14.686l-26.662,104.606v221.414c0,12.201-5.874,18.3-17.62,18.3h-58.743
	c-11.751,0-17.624-6.099-17.624-18.3V239.036c0-11.144,1.279-21.311,3.844-30.501L1488.446,123.811z M1618.128,208.535
	l21.463-84.725c3.619-12.651,10.997-18.977,22.144-18.977h62.581l8.362,3.614c3.164,3.616,4.219,8.51,3.164,14.686l-26.661,104.606
	v221.414c-0.605,12.201-6.479,18.3-17.625,18.3h-58.742c-11.747,0-17.62-6.099-17.62-18.3V239.036L1618.128,208.535z
	 M525.519,123.133c0-12.199,5.875-18.3,17.625-18.3h213.054c11.597,0,17.397,6.326,17.397,18.977v325.343
	c0,12.201-5.801,18.3-17.397,18.3h-58.97c-11.597,0-17.395-6.099-17.395-18.3V183.458H543.143c-11.749,0-17.625-5.873-17.625-17.622
	V123.133z M943.269,3.841c3.014,3.614,3.764,8.21,2.259,13.781l-22.143,87.211h140.532l9.038,3.614l2.259,14.686l-83.82,326.021
	c-3.618,12.201-11.296,18.3-23.048,18.3H906.44l-9.037-3.84c-3.01-3.613-3.764-8.207-2.26-13.78l68.685-266.376H823.977l-8.36-3.841
	c-3.464-3.614-4.443-8.208-2.937-13.781l36.602-146.631C852.293,6.403,859.899,0,872.1,0h61.906L943.269,3.841z M164.931,224.578
	l29.824,103.927l5.421,12.201c2.562,3.014,6.855,4.519,12.879,4.519h33.665c9.188,0,15.061-5.574,17.623-16.72l24.4-117.71
	l27.564-86.305c1.507-4.519,0.979-8.587-1.582-12.201l-9.262-5.196h-99.186c-11.146,0-18.299,5.573-21.463,16.718l-18.3,68.007
	C163.049,204.469,162.521,215.391,164.931,224.578z M229.097,50.61c63.261,0,117.258,22.366,161.992,67.103
	c44.737,44.734,67.103,98.73,67.103,161.992c0,63.111-22.366,117.035-67.103,161.767c-44.734,44.887-98.73,67.33-161.992,67.33
	c-63.111,0-117.035-22.443-161.769-67.33C22.443,396.739,0,342.815,0,279.704c0-63.261,22.443-117.258,67.328-161.992
	C112.062,72.976,165.985,50.61,229.097,50.61z M242.2,465.194c12.199,0,19.58-6.099,22.141-18.3l13.781-56.482
	c1.507-6.174,0.755-10.768-2.259-13.781c-2.559-2.56-5.648-3.839-9.262-3.839h-66.425c-12.199,0-19.579,6.098-22.141,18.299
	l-13.781,56.483c-1.507,5.573-0.754,10.167,2.259,13.781l9.263,3.839H242.2z M590.362,449.154
	c-3.012,12.201-10.392,18.3-22.141,18.3h-61.906l-9.038-3.84c-3.162-3.613-3.916-8.207-2.259-13.78l41.12-165.611
	c3.616-12.201,10.997-18.299,22.141-18.299h62.584c3.164,0,5.95,1.279,8.36,3.839c3.164,3.464,4.216,7.983,3.164,13.556
	L590.362,449.154z"/>
</svg>
